<?xml version="1.0" encoding="UTF-8"?>
<svg id="Layer_1" xmlns="http://www.w3.org/2000/svg" version="1.1" viewBox="0 0 1080 1080">
  <!-- Generator: Adobe Illustrator 29.0.0, SVG Export Plug-In . SVG Version: 2.1.0 Build 186)  -->
  <path d="M724.7,707.6c-.5-12.2-6.4-22.8-17.7-31.8-11.4-9-27.2-16.3-47.6-22-20.3-5.7-45.2-10-74.5-13.1-29.3-3.1-54.8-5.9-76.4-8.5-21.7-2.6-36.9-5.1-45.6-7.5-8.8-2.4-13.1-5.6-13.1-9.5s3-5.7,8.9-9.4c17.6,4.9,36.5,7.4,56.8,7.4,32.3,0,62.3-5.9,89.9-17.7,27.6-11.8,49.6-28,66.3-48.6,16.6-20.5,24.9-43.5,24.9-68.9s-7-48-21-67.9c-14-19.9-33.5-35.4-58.4-46.6-1.8-.8-3.5-1.5-5.3-2.3-1-3-1.4-5.9-1.2-8.6.4-5.2,3.1-9.5,7.9-12.8,4.8-3.3,11.8-4.9,21-4.9h45.9c7,0,13.5-9.1,19.4-27.2,5.9-18.1,9.3-36.5,10.2-55.1.9-18.6-1.8-27.9-7.9-27.9-15.3,0-28.9.9-40.7,2.6-11.8,1.8-24.3,5.9-37.4,12.5-16.2,8.3-29.4,24.6-39.7,48.9-8.7,20.4-13.4,41-14.1,61.8-13.3-2.5-27.3-3.8-42-3.8-32,0-61.5,5.8-88.6,17.4-27.1,11.6-48.8,28.1-65,49.5-16.2,21.5-24.3,45.9-24.3,73.5s7,45.1,21,64.3c12.2,16.9,28.5,30.5,48.6,41-14.4,6.1-26.1,14-35.2,23.6-12.5,13.4-18.7,27.9-18.7,43.6s6.4,30,19.4,40c3.7,2.9,7.7,5.6,12.1,8.1l-26.9,66.7c-1.8,4.4,4.9,9.7,20,16.1,15.1,6.4,36.1,11.8,63,16.4,26.9,4.6,56.5,6.9,88.9,6.9s77.8-5.7,104.7-17.1c26.9-11.4,45.9-25.3,57.1-41.7,11.2-16.4,16.3-32.3,15.4-47.6ZM471.4,396.9c1.3-3.7,3.5-6.8,6.6-9.2,3.1-2.4,7.2-3.6,12.5-3.6,10.9,0,23.8,10,38.7,29.9,14.9,19.9,27.7,43.1,38.4,69.6,10.7,26.5,16.1,48.2,16.1,65.3s-1.5,13.6-4.6,18.4c-3.1,4.8-8.5,7.2-16.4,7.2s-22.5-7.7-37.4-23.3c-14.9-15.5-27.9-36-39-61.4-11.2-25.4-16.7-52.3-16.7-80.7s.7-8.4,2-12.1ZM563.9,774.2c-4.8,2.4-11,3.6-18.4,3.6-32.4,0-57.1-1.8-74.1-5.6-17.1-3.7-30.1-11.8-39-24.3-5.6-7.8-9.4-18.2-11.6-31.4,6.4,2.6,13.4,4.8,20.8,6.8,21.2,5.7,51.5,11.8,90.9,18.4,13.5,2.2,23.4,5.1,29.5,8.5,6.1,3.5,9.2,8.1,9.2,13.8s-2.4,7.8-7.2,10.2Z"/>
</svg>