<?xml version="1.0" encoding="UTF-8"?>
<svg id="Layer_1" data-name="Layer 1" xmlns="http://www.w3.org/2000/svg" viewBox="0 0 1080.7 1080.7">
  <defs>
    <style>
      .cls-1 {
        fill: none;
      }
    </style>
  </defs>
  <path class="cls-1" d="M571.6,565.6c0,3.7-1.2,6.6-3.6,8.7-2.4,2.1-5.9,3.2-10.5,3.2-7.4,0-16.3-7.6-26.6-22.8-10.4-15.2-19.4-33.2-27.1-54.1s-11.5-39-11.5-54.4.6-5.7,1.9-7.7,3-3.5,5.3-4.5,4.8-1.4,7.7-1.1c6.2.6,14.5,9.5,24.7,26.7s19.4,36.4,27.5,57.5,12.2,37.3,12.2,48.4v.1Z"/>
  <path class="cls-1" d="M0,0v1080.7h1080.7V0H0ZM655.3,368.3c-.7,10.2-3.6,20-8.7,29.4-5.1,9.4-11.5,14.1-19.2,14.1h-20.5c-9.7,0-16.4.5-20.2,1.5s-6.2,3.1-7,6.2c-.7,2.5-.6,6.2,0,11.3,3.7,1.2,7.3,2.5,10.8,4,15.8,6.8,27.9,16.3,36.4,28.3,8.5,12.1,12.8,25.7,12.8,40.7s-5.1,29.3-15.3,42c-10.2,12.7-24,22.6-41.4,29.8-17.3,7.2-36.5,10.9-57.5,10.9s-32.3-2.5-46-7.7c-1.2.4-2.3.9-3.5,1.3-9.1,4-13.6,7.7-13.6,11.1s2,3.7,6,5.1c4,1.4,12.9,3.2,26.9,5.3,13.9,2.1,36.2,5.1,66.9,8.7,19,2.3,34.9,5.4,47.5,9.4s22.5,9.4,29.4,16.2c7,6.8,10.4,15.6,10.4,26.4s-4,22.4-12.1,32.4c-8.1,9.9-20.2,18-36.5,24.3s-36.1,9.4-59.7,9.4-32.9-.8-50.9-2.3-33-4-45-7.5c-11.9-3.4-16.9-7.7-14.9-12.8l14.9-38.5c-2.3-1.8-4.5-3.7-6.6-5.8-7.5-7.7-11.3-18.5-11.3-32.4s4.3-21.7,12.8-30.9c7.6-8.2,19-15.4,34.1-21.5-.3-.1-.7-.3-1-.5-15.2-6.8-27-16-35.4-27.5s-12.6-24.1-12.6-37.7,4.9-31.7,14.7-44.8c9.8-13.1,23.2-23.3,40.1-30.7,16.9-7.4,35.6-11.1,56.1-11.1s27,1.6,38.8,4.8c.2-13.8,2.5-27.3,6.8-40.4,4.5-13.8,13.8-24.2,27.7-31.3,4.3-2,9.6-3.3,16-3.8,6.4-.6,14.6-.9,24.5-.9s6,5.1,5.3,15.4v.1ZM462.4,693.3c5.1,10.7,13.9,18.5,26.4,23.4,12.5,5,29.8,7.5,52,7.5s11.6-1.1,16.8-3.4c5.3-2.3,7.9-5.4,7.9-9.4,0-6.5-4.6-11.5-13.8-14.9s-22.8-6.5-40.7-9.4c-18.2-2.9-32.9-5.9-44.1-9.2-3.6-1.1-7.1-2.3-10.3-3.9,1.3,7.4,3.2,13.8,5.8,19.2v.1Z"/>
  <path d="M586.7,413.2c3.8-1,10.6-1.5,20.2-1.5h20.5c7.7,0,14.1-4.7,19.2-14.1,5.1-9.4,8-19.2,8.7-29.4.7-10.2-1.1-15.4-5.3-15.4-10,0-18.1.3-24.5.9s-11.7,1.9-16,3.8c-13.9,7.1-23.2,17.5-27.7,31.3-4.3,13.2-6.6,26.6-6.8,40.4-11.8-3.2-24.8-4.8-38.8-4.8-20.5,0-39.2,3.7-56.1,11.1s-30.3,17.6-40.1,30.7c-9.8,13.1-14.7,28-14.7,44.8s4.2,26.2,12.6,37.7,20.2,20.7,35.4,27.5c.3.2.7.3,1,.5-15.1,6.1-26.5,13.3-34.1,21.5-8.5,9.2-12.8,19.5-12.8,30.9s3.8,24.7,11.3,32.4c2.1,2.1,4.3,4,6.6,5.8l-14.9,38.5c-2,5.1,3,9.4,14.9,12.8,11.9,3.4,26.9,5.9,45,7.5s35,2.3,50.9,2.3c23.6,0,43.5-3.1,59.7-9.4s28.3-14.4,36.5-24.3c8.1-10,12.1-20.8,12.1-32.4s-3.5-19.6-10.4-26.4c-7-6.8-16.8-12.2-29.4-16.2-12.6-4-28.5-7.1-47.5-9.4-30.7-3.7-53-6.6-66.9-8.7-13.9-2.1-22.9-3.9-26.9-5.3-4-1.4-6-3.1-6-5.1,0-3.4,4.5-7.1,13.6-11.1,1.2-.4,2.3-.8,3.5-1.3,13.7,5.1,29,7.7,46,7.7s40.2-3.6,57.5-10.9c17.3-7.2,31.1-17.2,41.4-29.8,10.2-12.6,15.3-26.6,15.3-42s-4.3-28.6-12.8-40.7-20.7-21.5-36.4-28.3c-3.5-1.5-7.1-2.8-10.8-4-.7-5.1-.8-8.9,0-11.3.8-3.1,3.2-5.2,7-6.2v-.1ZM466.9,678c11.2,3.3,25.9,6.3,44.1,9.2,17.9,2.8,31.5,6,40.7,9.4s13.8,8.4,13.8,14.9-2.6,7.1-7.9,9.4c-5.3,2.3-10.9,3.4-16.8,3.4-22.2,0-39.5-2.5-52-7.5s-21.3-12.8-26.4-23.4c-2.6-5.4-4.5-11.8-5.8-19.2,3.2,1.5,6.7,2.8,10.3,3.9v-.1ZM567.9,574.4c-2.4,2.1-5.9,3.2-10.5,3.2-7.4,0-16.3-7.6-26.6-22.8-10.4-15.2-19.4-33.2-27.1-54.1s-11.5-39-11.5-54.4.6-5.7,1.9-7.7,3-3.5,5.3-4.5,4.8-1.4,7.7-1.1c6.2.6,14.5,9.5,24.7,26.7s19.4,36.4,27.5,57.5,12.2,37.3,12.2,48.4-1.2,6.6-3.6,8.7v.1Z"/>
</svg>