<?xml version="1.0" encoding="UTF-8"?>
<svg id="Layer_1" xmlns="http://www.w3.org/2000/svg" version="1.1" viewBox="0 0 500 500">
  <!-- Generator: Adobe Illustrator 29.0.0, SVG Export Plug-In . SVG Version: 2.1.0 Build 186)  -->
  <g id="_x34_90b413dc8">
    <path d="M324.7,337.6c14.4,0,26.8,3.3,37,10,10.2,6.7,17.9,15.2,23.1,25.6,5.2,10.4,7.8,21.5,7.8,33.3,0,21.5-7,39.8-21.1,55-14.1,15.2-34.3,22.8-60.6,22.8s-31.6-3.1-42.8-9.2c-11.1-6.1-20.2-12.9-27.2-20.3-9.3,3.7-19.1,6.9-29.4,9.5-10.4,2.6-21.5,3.9-33.3,3.9-23.7,0-41.1-6.1-52-18.4-10.9-12.2-16.4-27.4-16.4-45.6s6-36.8,18-51.4c12.1-14.6,26-26.4,42-35.3-18.9-8.5-34-20.7-45.3-36.4-11.3-15.7-16.9-34.9-16.9-57.5s6.3-48.3,18.9-67.2c12.6-18.9,29.6-33.5,50.9-43.9,21.3-10.4,44.7-15.6,70.2-15.6s15.3.5,22.5,1.4c7.2.9,14.2,2.3,20.9,4.1.4-23.7,4.4-42.5,12-56.3,7.6-13.9,16.8-23.9,27.5-30,10.7-6.1,21.3-9.2,31.6-9.2s16.2,2.2,21.9,6.7c5.8,4.4,7.7,10.2,5.9,17.2l-13.3,50c-1.1,3.3-2.9,5.9-5.3,7.5-2.4,1.7-5.1,1.4-8-.8-10.4-7.8-23.1-11.7-38.3-11.7s-14.9,1.9-20.3,5.8c-5.4,3.9-7.8,11.4-7.5,22.5,23.7,8.2,42.5,21.4,56.3,39.7,13.9,18.3,20.9,40.5,20.9,66.4s-6.3,43-18.9,61.1c-12.6,18.1-29.4,32.4-50.6,42.7-21.1,10.4-44.8,15.5-71.1,15.5s-40.4-3.3-57.8-10c-9.2,4.4-16.8,9.2-22.7,14.4-5.9,5.2-8.9,12.6-8.9,22.2s2.4,12,7.2,16.1c4.8,4.1,10.8,6.1,17.8,6.1,12.9,0,25.6-2,38-6.1,12.4-4.1,24.9-8.9,37.5-14.5,12.6-5.5,25.5-10.4,38.6-14.4,13.2-4.1,27-6.1,41.4-6.1ZM216.9,108.2c-27.8,0-41.7,15.4-41.7,46.1s2.5,35.1,7.5,54.2c5,19.1,11.7,36.9,20,53.6,8.3,16.7,17.9,30.3,28.6,40.8,10.7,10.6,21.8,15.8,33.3,15.8,27.8,0,41.7-14.6,41.7-43.9s-1.8-25.8-5.3-40.8c-3.5-15-8.3-29.9-14.5-44.5-6.1-14.6-13-28.1-20.6-40.5-7.6-12.4-15.6-22.3-24.1-29.7-8.5-7.4-16.9-11.1-25-11.1ZM311.9,477.6c13.3,0,24.5-2.3,33.6-7,9.1-4.6,13.6-11.8,13.6-21.4s-2.1-12.2-6.4-16.4c-4.3-4.3-10.7-6.4-19.2-6.4-15.6,0-30.2,2.9-43.9,8.6-13.7,5.8-28.1,11.8-43.3,18.1,7,6.7,15.9,12.4,26.6,17.2,10.8,4.8,23.7,7.2,38.9,7.2Z"/>
  </g>
</svg>